<svg width="207" height="51" viewBox="0 0 207 51" fill="none" xmlns="http://www.w3.org/2000/svg">
<path d="M40.85 9.25073V41.2242H35.7577V21.4983L26.6732 33.3268H24.952L15.8139 21.4604V41.2343H10.7217V9.25073H12.504L25.8151 26.8331L39.1262 9.25073H40.85ZM67.7396 35.9828H53.4686L51.2102 41.2242H45.7793L59.7626 9.25073H61.494L75.4773 41.2242H69.998L67.7396 35.9828ZM60.6283 18.6378L55.2814 31.6478H65.9013L60.6283 18.6378ZM101.621 9.77588L87.6325 41.7493H85.9037L71.9203 9.77588H77.6389L86.7693 31.6478L95.8997 9.77588H101.621ZM106.52 9.77588H127.375V14.3028H111.614V22.3542H123.487V26.7397H111.612V36.6973H127.95V41.2242H106.517L106.52 9.77588ZM134.871 9.77588H139.963V41.2242H134.871V9.77588ZM161.096 41.2242H154.804L140.106 24.4901L153.417 9.76578H159.665L146.496 24.4901L161.096 41.2242ZM162.977 25.5C162.977 16.3024 170.379 9.25073 179.606 9.25073C188.785 9.25073 196.281 16.3024 196.281 25.5C196.281 34.7432 188.785 41.7493 179.606 41.7493C170.336 41.7493 162.977 34.6977 162.977 25.5ZM191.043 25.4521C191.043 18.8296 186.14 13.8862 179.655 13.8862C173.07 13.8862 168.266 18.7943 168.266 25.4647C168.266 32.231 173.07 37.1392 179.655 37.1392C186.14 37.1265 191.043 32.2184 191.043 25.4521Z" fill="#05184C"/>
</svg>
